<svg xmlns="http://www.w3.org/2000/svg" width="720" height="160" viewBox="0 0 720 160" fill="none">
  <rect width="720" height="160" rx="16" fill="#faf8fc"/>
  <rect x="24" y="48" width="112" height="52" rx="12" fill="#f3e8ff" stroke="#a855c8" stroke-width="1.4"/>
  <text x="80" y="79" text-anchor="middle" font-family="ui-sans-serif,system-ui,sans-serif" font-size="12.5" font-weight="600" fill="#17141f">Copilot</text>
  <path d="M144 74h28" stroke="#9a93a8" stroke-width="1.5" marker-end="url(#arr)"/>
  <rect x="180" y="48" width="112" height="52" rx="12" fill="#fff" stroke="#a855c8" stroke-width="1.4"/>
  <text x="236" y="79" text-anchor="middle" font-family="ui-sans-serif,system-ui,sans-serif" font-size="12.5" font-weight="600" fill="#17141f">ChatGPT</text>
  <path d="M300 74h28" stroke="#9a93a8" stroke-width="1.5" marker-end="url(#arr)"/>
  <rect x="336" y="48" width="100" height="52" rx="12" fill="#fff" stroke="#a855c8" stroke-width="1.4"/>
  <text x="386" y="79" text-anchor="middle" font-family="ui-sans-serif,system-ui,sans-serif" font-size="12.5" font-weight="600" fill="#17141f">Cursor</text>
  <path d="M444 74h28" stroke="#9a93a8" stroke-width="1.5" marker-end="url(#arr)"/>
  <rect x="480" y="48" width="108" height="52" rx="12" fill="#fff" stroke="#a855c8" stroke-width="1.4"/>
  <text x="534" y="72" text-anchor="middle" font-family="ui-sans-serif,system-ui,sans-serif" font-size="11.5" font-weight="600" fill="#17141f">Claude</text>
  <text x="534" y="88" text-anchor="middle" font-family="ui-sans-serif,system-ui,sans-serif" font-size="11.5" font-weight="600" fill="#17141f">Code</text>
  <path d="M596 74h28" stroke="#9a93a8" stroke-width="1.5" marker-end="url(#arr)"/>
  <rect x="632" y="48" width="64" height="52" rx="12" fill="#fdf2f8" stroke="#e879b8" stroke-width="1.5"/>
  <text x="664" y="79" text-anchor="middle" font-family="ui-sans-serif,system-ui,sans-serif" font-size="12.5" font-weight="700" fill="#17141f">Cial</text>
  <text x="360" y="132" text-anchor="middle" font-family="ui-sans-serif,system-ui,sans-serif" font-size="11" fill="#9a93a8">passive → active → building the tool itself</text>
  <defs>
    <marker id="arr" markerWidth="8" markerHeight="8" refX="6" refY="4" orient="auto">
      <path d="M0 0l7 4-7 4" fill="#9a93a8"/>
    </marker>
  </defs>
</svg>
