<svg xmlns="http://www.w3.org/2000/svg" width="720" height="240" viewBox="0 0 720 240" fill="none" role="img" aria-label="From VS Code to Cursor">
  <rect width="720" height="240" rx="16" fill="#faf8fc"/>

  <!-- VS Code card -->
  <rect x="56" y="40" width="220" height="160" rx="16" fill="#ffffff" stroke="rgba(80,50,100,0.12)" stroke-width="1.2"/>
  <rect x="132" y="68" width="68" height="68" rx="16" fill="#e8f3ff"/>
  <path transform="translate(144 80) scale(1.8)" fill="#007ACC" d="M23.15 2.587L18.21.21a1.494 1.494 0 0 0-1.705.29l-9.46 8.63-4.12-3.128a.999.999 0 0 0-1.276.057L.327 7.261A1 1 0 0 0 .326 8.74L3.899 12 .326 15.26a1 1 0 0 0 .001 1.479L1.65 17.94a.999.999 0 0 0 1.276.057l4.12-3.128 9.46 8.63a1.492 1.492 0 0 0 1.704.29l4.942-2.377A1.5 1.5 0 0 0 24 20.06V3.939a1.5 1.5 0 0 0-.85-1.352zm-5.146 14.861L10.826 12l7.178-5.448v10.896z"/>
  <text x="166" y="168" text-anchor="middle" font-family="ui-sans-serif,system-ui,sans-serif" font-size="15" font-weight="600" fill="#17141f">VS Code</text>
  <text x="166" y="188" text-anchor="middle" font-family="ui-sans-serif,system-ui,sans-serif" font-size="12" fill="#6b6478">extensions · Copilot</text>

  <!-- arrow -->
  <path d="M300 120h100" stroke="#9a93a8" stroke-width="1.6" stroke-linecap="round"/>
  <path d="M388 112l12 8-12 8" fill="none" stroke="#a855c8" stroke-width="1.8" stroke-linecap="round" stroke-linejoin="round"/>
  <text x="350" y="108" text-anchor="middle" font-family="ui-sans-serif,system-ui,sans-serif" font-size="11" font-weight="600" fill="#a855c8">then</text>

  <!-- Cursor card — official mark from cursor.com/favicon.svg -->
  <rect x="444" y="40" width="220" height="160" rx="16" fill="#ffffff" stroke="#a855c8" stroke-opacity="0.35" stroke-width="1.4"/>
  <rect x="520" y="68" width="68" height="68" rx="16" fill="#14120b"/>
  <g transform="translate(520 68) scale(0.1328125)">
    <path d="m415.035 156.35-151.503-87.4695c-4.865-2.8094-10.868-2.8094-15.733 0l-151.4969 87.4695c-4.0897 2.362-6.6146 6.729-6.6146 11.459v176.383c0 4.73 2.5249 9.097 6.6146 11.458l151.5039 87.47c4.865 2.809 10.868 2.809 15.733 0l151.504-87.47c4.089-2.361 6.614-6.728 6.614-11.458v-176.383c0-4.73-2.525-9.097-6.614-11.459zm-9.516 18.528-146.255 253.32c-.988 1.707-3.599 1.01-3.599-.967v-165.872c0-3.314-1.771-6.379-4.644-8.044l-143.645-82.932c-1.707-.988-1.01-3.599.968-3.599h292.509c4.154 0 6.75 4.503 4.673 8.101h-.007z" fill="#edecec"/>
  </g>
  <text x="554" y="168" text-anchor="middle" font-family="ui-sans-serif,system-ui,sans-serif" font-size="15" font-weight="600" fill="#17141f">Cursor</text>
  <text x="554" y="188" text-anchor="middle" font-family="ui-sans-serif,system-ui,sans-serif" font-size="12" fill="#6b6478">ChatGPT inside the IDE</text>
</svg>
